Marcello Mastroianni stars in this French farce, an absurd "western" set in Paris, with Mastroianni as the incurably vain General George Armstrong Custer. Richard Nixon is the American president, but everyone is costumed appropriately for the previous century. Buffalo Bill (Michel Piccoli), the famous scout, is here portrayed as a limp-wristed bungler. Ugo Tognazzi plays one of Custer's Native American opponents; he runs a curio shop selling Native artifacts made in sweatshops by white women. The climactic battle is held in a large construction excavation where Les Halles market used to be. The language the two sides use to justify their conflict is lifted from that used in the then-current Vietnam War.

   General
      Complete name : Touche pas a la femme blanche.avi
      Format : AVI
      Format/Info : Audio Video Interleave
      File size : 1.36 GiB
      Duration : 1h 49mn
      Overall bit rate : 1 779 Kbps
      Writing application : FairUse Wizard - http://fairusewizard.com
      Writing library : The best and REALLY easy backup tool
   Video #0
      ID : 0
      Format : MPEG-4 Visual
      Format profile : AdvancedSimple@L5
      Format settings, BVOP : Yes
      Format settings, QPel : No
      Format settings, GMC : No warppoints
      Format settings, Matrix : Default (MPEG)
      Muxing mode : Packed bitstream
      Codec ID : XVID
      Codec ID/Hint : XviD
      Duration : 1h 49mn
      Bit rate : 1 577 Kbps
      Width : 640 pixels
      Height : 384 pixels
      Display aspect ratio : 1.667
      Frame rate : 23.976 fps
      Resolution : 24 bits
      Colorimetry : 4:2:0
      Scan type : Progressive
      Bits/(Pixel*Frame) : 0.268
      Stream size : 1.21 GiB (89%)
      Writing library : XviD 1.2.1 (UTC 2008-12-04)
   Audio #1
      ID : 1
      Format : AC-3
      Format/Info : Audio Coding 3
      Codec ID : 2000
      Duration : 1h 49mn
      Bit rate mode : Constant
      Bit rate : 192 Kbps
      Channel(s) : 2 channels
      Channel positions : L R
      Sampling rate : 48.0 KHz
      Stream size : 151 MiB (11%)
      Alignment : Split accross interleaves
      Interleave, duration : 42 ms (1.00 video frame)
      Interleave, preload duration : 500 ms
 
http://www.imdb.com/title/tt0072305/

French audio; English, Spanish and Portuguese subtitles

My rip of the Koch Lorber DVD

Marco Ferreri - Touche pas a la femme blanche (1974)